 <!DOCTYPE svg PUBLIC "-//W3C//DTD SVG 1.1//EN" "http://www.w3.org/Graphics/SVG/1.1/DTD/svg11.dtd">

<svg xmlns="http://www.w3.org/2000/svg" width="71.76" height="510.89" viewBox="0 0 865.76 682.89">

<defs>

<style xmlns="http://www.w3.org/1999/xhtml">*, ::after, ::before { box-sizing: border-box; }
img, svg { vertical-align: middle; }
</style>

<style xmlns="http://www.w3.org/1999/xhtml">*, body, html { -webkit-font-smoothing: antialiased; }
img, svg { max-width: 100%; }
</style>

</defs>

<path d="M241.53,230.75c-7.29,3-16.95,6.71-28.77,10.54,0,0-76.12,13-89.92,102.51,0,0-14.62,49.44,51,77l52.68,25.12s73,35.78,69.17,109.73a84.42,84.42,0,0,0,9.84,44.76c11.61,21.34,34.31,45.77,77.4,45.88,0,0,45.78,11.55,54.7-35.86,0,0,18.74-97.65,84.53-94l104.9-3.65s34,9.72,61.88-16.61c0,0,24.22-16.21,20.58-53.09,0,0-4.17-24.71,15.54-34.44,0,0,79.16-51.46,63.21-80.23,0,0-67.81-50.24-69.43-72.53,0,0-7-17.52-9-43.53a144.48,144.48,0,0,1,.64-28.05c1.67-14.33,2.5-47.2-23.25-56.37,0,0-15.57-14.68-65.32,1.53,0,0-74.3,32.42-103.15-26.34L497.94,62.8s-17.75-56.13-85-55.31c0,0-59.56,2.87-71.72,67.89,0,0-7.56,80.73-63.44,132.28A122.72,122.72,0,0,1,241.53,230.75Z" fill="#6366f1" data-primary="true"/>

<path d="M241.53,230.75c-7.29,3-16.95,6.71-28.77,10.54,0,0-76.12,13-89.92,102.51,0,0-14.62,49.44,51,77l52.68,25.12s73,35.78,69.17,109.73a84.42,84.42,0,0,0,9.84,44.76c11.61,21.34,34.31,45.77,77.4,45.88,0,0,45.78,11.55,54.7-35.86,0,0,18.74-97.65,84.53-94l104.9-3.65s34,9.72,61.88-16.61c0,0,24.22-16.21,20.58-53.09,0,0-4.17-24.71,15.54-34.44,0,0,79.16-51.46,63.21-80.23,0,0-67.81-50.24-69.43-72.53,0,0-7-17.52-9-43.53a144.48,144.48,0,0,1,.64-28.05c1.67-14.33,2.5-47.2-23.25-56.37,0,0-15.57-14.68-65.32,1.53,0,0-74.3,32.42-103.15-26.34L497.94,62.8s-17.75-56.13-85-55.31c0,0-59.56,2.87-71.72,67.89,0,0-7.56,80.73-63.44,132.28A122.72,122.72,0,0,1,241.53,230.75Z" fill="#fff" opacity="0.7"/>

<path d="M668.31,401.94s4.29,8.71,14.09,7.37c0,0,7.54-.94,11.69-9.44,0,0,.38,23.25,0,31.51a50.36,50.36,0,0,1-29.68-2.16S667,420,668.31,401.94Z" fill="#0f172a" data-secondary="true"/>

<path d="M682.24,433.41a58.51,58.51,0,0,1-9.66-.82c-.21,0-21.61-3.69-31.52-23.09l-.14-.28.09-.29c.06-.2,6.65-19.85,32.12-18.3L697,392.17c.72.25,17.67,6.26,25.64,18.4l.25.38-.22.4A47.23,47.23,0,0,1,682.24,433.41ZM642.55,409.1c9.62,18.46,30.07,22,30.27,22,31.54,5.23,46.31-16.86,48.28-20.09-7.5-11-23.16-16.88-24.52-17.38L673,392.13C650.21,390.78,643.45,406.65,642.55,409.1Z" fill="#0f172a" data-secondary="true"/>

<path d="M641.73,409.16a35.71,35.71,0,0,1,31.63-15.64s-.3,3.89-5.05,8.42c0,0-1.54,21.38-3.9,27.28A48,48,0,0,1,641.73,409.16Z" fill="#6366f1" data-primary="true"/>

<path d="M720.86,412.5c-9.05,15.08-26.77,18.88-26.77,18.88V399.87s1.13-.95,1-7.08c0,0,10,5.92,17.31,11.45a36.78,36.78,0,0,1,4.54,4.1Z" fill="#6366f1" data-primary="true"/>

<path d="M484.48,354.41a57.35,57.35,0,0,0,21.45-1l8.26-47.39-9.05-10s-16.8,9.82-24.22-5.51l-4.4,16.35Z" fill="#fff"/>

<path d="M492.61,355.76a50.65,50.65,0,0,1-8.26-.61l-.52-.09-8.08-48.18,5-18.47.88,1.83c1.92,4,4.68,6.52,8.18,7.59,7,2.14,14.91-2.37,15-2.41l.53-.31L515,305.82l-8.41,48.24-.48.12A56.91,56.91,0,0,1,492.61,355.76Zm-7.47-2a58,58,0,0,0,20.13-.92l8.12-46.54L505,297c-2,1-9,4.28-15.63,2.25a14.33,14.33,0,0,1-8.19-6.68L477.29,307Z" fill="#0f172a" data-secondary="true"/>

<path d="M514.2,258.29v7.28l-3,.38v-5.7a1.46,1.46,0,0,0-1.7-1.45c-2.72.42-7.88.91-8.92-1.45a11.28,11.28,0,0,0-10.5,2.81s-6,3-15.08,1.51c0,0,0,2.94.27,7.07l-.27,0s-15.43-15.19-.16-20.19c0,0,7.7-12.54,22.79-11C497.64,237.53,512.66,238.32,514.2,258.29Z" fill="#0f172a" data-secondary="true"/>

<ellipse cx="475.01" cy="272.22" rx="4.52" ry="6.03" transform="translate(-51.45 121.94) rotate(-13.88)" fill="#f9b499"/>

<path d="M475.62,278.94a5,5,0,0,1-3.17-1.22,8.29,8.29,0,0,1-2.26-9.16,4.71,4.71,0,0,1,3.19-2.92c2.83-.71,5.86,1.68,6.76,5.32a7.91,7.91,0,0,1-.3,4.93,4.77,4.77,0,0,1-3.2,2.92A4,4,0,0,1,475.62,278.94ZM474.4,267a2.82,2.82,0,0,0-.65.08,3.28,3.28,0,0,0-2.17,2,6.29,6.29,0,0,0-.23,4,6.37,6.37,0,0,0,2.06,3.42,3,3,0,0,0,5-1.25,6.36,6.36,0,0,0,.22-4C478.05,268.8,476.22,267,474.4,267Z" fill="#0f172a" data-secondary="true"/>

<ellipse cx="509.7" cy="267.7" rx="6.03" ry="4.52" transform="translate(184.5 742.78) rotate(-83.32)" fill="#f9b499"/>

<path d="M509.4,274.47a4,4,0,0,1-.49,0,4.76,4.76,0,0,1-3.53-2.5,7.82,7.82,0,0,1-.92-4.85,7.91,7.91,0,0,1,2-4.52,4.54,4.54,0,0,1,7.56.89,7.89,7.89,0,0,1,.92,4.85h0C514.53,271.82,512.1,274.47,509.4,274.47Zm.6-12a3.4,3.4,0,0,0-2.43,1.17,6.78,6.78,0,0,0-.89,7.57,3.26,3.26,0,0,0,2.41,1.76c2.1.26,4-1.91,4.36-4.8h0a6.36,6.36,0,0,0-.73-3.93,3.27,3.27,0,0,0-2.4-1.75A1.72,1.72,0,0,0,510,262.44Z" fill="#0f172a" data-secondary="true"/>

<g opacity="0.5">

<path d="M681.92,332.56a53.17,53.17,0,1,0,53.16,53.16A53.16,53.16,0,0,0,681.92,332.56Zm.48,101.54a48,48,0,1,1,48-48A48,48,0,0,1,682.4,434.1Z" fill="#6366f1" data-primary="true"/>

</g>

<g opacity="0.5">

<path d="M681.86,105.83a59.64,59.64,0,1,0,59.63,59.64A59.64,59.64,0,0,0,681.86,105.83Zm.54,113.89a53.83,53.83,0,1,1,53.83-53.83A53.83,53.83,0,0,1,682.4,219.72Z" fill="#6366f1" data-primary="true"/>

</g>

<g opacity="0.5">

<path d="M491.7,218a72.57,72.57,0,1,0,72.56,72.56A72.57,72.57,0,0,0,491.7,218Zm.66,138.59a65.51,65.51,0,1,1,65.51-65.51A65.51,65.51,0,0,1,492.36,356.59Z" fill="#6366f1" data-primary="true"/>

</g>

<path d="M130.89,329.61s-12.59-.82-11.08,11.24c0,0,3.29,17,23.51,21.34l5.48-3.7Z" fill="#f9b499"/>

<path d="M143.48,363l-.31-.07c-20.48-4.35-24.07-21.75-24.1-21.93-.47-3.76.3-6.71,2.28-8.81,3.46-3.68,9.34-3.35,9.59-3.33l.38,0,18.5,29.83Zm-13.06-32.64c-1.33,0-5.49.22-8,2.87-1.65,1.76-2.29,4.29-1.88,7.54,0,.11,3.41,16.37,22.61,20.62l4.61-3.11-17.32-27.92Z" fill="#0f172a" data-secondary="true"/>

<path d="M298.56,429.3l-89.72,17.46a9,9,0,0,1-9.33-4.08L93,270.93c-7.21-11.09,1.18-16.05,1.18-16.05l.71.33c-.77,2-.48,5,1.94,9.44l106.5,173.24a6.86,6.86,0,0,0,7.09,3.16l88.34-16.34a6.16,6.16,0,0,0,4.81-4.34C306.34,428.12,298.56,429.3,298.56,429.3Z" fill="#6366f1" data-primary="true"/>

<path d="M207.16,447.68a9.77,9.77,0,0,1-8.29-4.61L92.35,271.33c-2.62-4-3.55-7.77-2.77-11.09a9.91,9.91,0,0,1,4.21-6l.34-.2,1.7.79-.25.66c-.79,2.11-.16,5.08,1.9,8.81L204,437.5a6.12,6.12,0,0,0,6.31,2.8L298.62,424a5.43,5.43,0,0,0,4.22-3.82l.66-2.2.77,2.16c.92,2.57.86,4.77-.19,6.53-1.64,2.74-5.08,3.35-5.39,3.4L209,447.5A9.46,9.46,0,0,1,207.16,447.68ZM93.87,256A8.63,8.63,0,0,0,91,260.6c-.67,2.91.2,6.25,2.58,9.92L200.15,442.28A8.27,8.27,0,0,0,208.7,446l89.74-17.47s3-.49,4.35-2.7a4.94,4.94,0,0,0,.55-3.29,6.88,6.88,0,0,1-4.45,2.89l-88.34,16.34a7.66,7.66,0,0,1-7.87-3.5L96.18,265.05Q93.21,259.65,93.87,256Z" fill="#0f172a" data-secondary="true"/>

<path d="M605.89,475.51c-1.36,1.25-1.74,2.67-.44,4.24a5,5,0,0,0,2.92,1.61c4.92.91,21.12,4.39,21.18,10.58,0,0,.06,11.81-24.07,8.79,0,0-12.1-1.22-19.73,1a3.82,3.82,0,0,0-.48.15,12.32,12.32,0,0,0-2,.8,8.07,8.07,0,0,0-.88.48,6.83,6.83,0,0,0-1.11.86,1.37,1.37,0,0,0-.22.19,4.54,4.54,0,0,0-1.38,3.35,4,4,0,0,0,0,.47c0,.11,0,.21,0,.33a.12.12,0,0,0,0,.06,8.45,8.45,0,0,0,1.13,2.54.33.33,0,0,0,.06.1c1.27,2,3.81,4.71,8.84,6.82a2.67,2.67,0,0,0,.34.15l.41.17c1.43.66,6.13,3.07,4,5.61,0,0,0,.06-.07.07a8.58,8.58,0,0,1-3.32,2c-.11,0-.21.08-.32.12a34,34,0,0,1-3.83,1.1s-5.2.2-12-.24h-.21l-.11,0a23.57,23.57,0,0,0-5.44,0,.71.71,0,0,0-.21,0,13.23,13.23,0,0,0-7.08,2.89h-.12A182.75,182.75,0,0,0,543.17,528s0,0,0-.08a20,20,0,0,1,.55-2c3.17-9.12,12.76-12.49,14.67-13.07a1.81,1.81,0,0,1,.31-.09l.08,0c.09,0,.19-.08.28-.12,17.76-7.47,19.25-13.43,19.25-13.43a11.25,11.25,0,0,0,1.46-2.83c.61-1.78.18-2.88-.68-3.55h0a1.56,1.56,0,0,0-.4-.27,0,0,0,0,1,0,0c-2.1-1.18-5.83-.6-5.83-.6a1.71,1.71,0,0,0-.25,0l-.5,0a29.11,29.11,0,0,1-7.92-.09c.77-1,35.64-48.37,70-36.44a11.91,11.91,0,0,1,3.86,3.18c1.91,2.75,1.32,6.84-12.91,10.4C625.09,469.06,610.31,471.39,605.89,475.51Z" fill="#6366f1" data-primary="true"/>

<g opacity="0.2">

<path d="M605.89,475.51c-1.36,1.25-1.74,2.67-.44,4.24a5,5,0,0,0,2.92,1.61c4.92.91,21.12,4.39,21.18,10.58,0,0,.06,11.81-24.07,8.79,0,0-12.1-1.22-19.73,1a3.82,3.82,0,0,0-.48.15,12.32,12.32,0,0,0-2,.8,8.07,8.07,0,0,0-.88.48,6.83,6.83,0,0,0-1.11.86,1.37,1.37,0,0,0-.22.19,4.54,4.54,0,0,0-1.38,3.35,4,4,0,0,0,0,.47c0,.11,0,.21,0,.33a.12.12,0,0,0,0,.06,8.45,8.45,0,0,0,1.13,2.54.33.33,0,0,0,.06.1c1.27,2,3.81,4.71,8.84,6.82a2.67,2.67,0,0,0,.34.15l.41.17c1.43.66,6.13,3.07,4,5.61,0,0,0,.06-.07.07a8.58,8.58,0,0,1-3.32,2c-.11,0-.21.08-.32.12a34,34,0,0,1-3.83,1.1s-5.2.2-12-.24h-.21l-.11,0a23.57,23.57,0,0,0-5.44,0,.71.71,0,0,0-.21,0,13.23,13.23,0,0,0-7.08,2.89h-.12A182.75,182.75,0,0,0,543.17,528s0,0,0-.08a20,20,0,0,1,.55-2c3.17-9.12,12.76-12.49,14.67-13.07a1.81,1.81,0,0,1,.31-.09l.08,0c.09,0,.19-.08.28-.12,17.76-7.47,19.25-13.43,19.25-13.43a11.25,11.25,0,0,0,1.46-2.83c.61-1.78.18-2.88-.68-3.55h0a1.56,1.56,0,0,0-.4-.27,0,0,0,0,1,0,0c-2.1-1.18-5.83-.6-5.83-.6a1.71,1.71,0,0,0-.25,0l-.5,0a29.11,29.11,0,0,1-7.92-.09c.77-1,35.64-48.37,70-36.44a11.91,11.91,0,0,1,3.86,3.18c1.91,2.75,1.32,6.84-12.91,10.4C625.09,469.06,610.31,471.39,605.89,475.51Z"/>

</g>

<path d="M585.39,462.37c-23.12,6.9-28.92,16.49-28.92,16.49-4.67,14,11.84,13.45,15.63,13.15l.5,0,.25,0a25.48,25.48,0,0,1,5.83.6,0,0,0,0,0,0,0c.36.13.4.22.4.27h0a6,6,0,0,1,.68,3.55c-.93,8.1-18,15.18-20.71,16.26-.09,0-.19.07-.28.12l-.08,0a1.81,1.81,0,0,0-.31.09A19.75,19.75,0,0,0,543.74,526a12.82,12.82,0,0,0-.55,2l0,.14-13.22-.65c7.18.24,11.23.54,11.23.54.52-19.5-11.11-13.68-11.11-13.68-10.55,3-7.54-4.52-7.54-4.52,2.14-6.41,2-10.3,1.25-12.62,4.35-9.19,5.09-14.3,5.19-15.49,0,0,0,0,0-.05a1.31,1.31,0,0,0,0-.23c.06-.31.12-.63.2-.95a.57.57,0,0,1,0-.18,255,255,0,0,1,9.26-33.18c14.09-40.83,35.28-48.6,43-50.08a8.64,8.64,0,0,1,6.19,1.05,6.08,6.08,0,0,1,2.36,2.44c4.2,8.11-14.79,23.92-21.46,29.12a13.86,13.86,0,0,0-2.41,2.37,12.38,12.38,0,0,0-2.2,3.89c-1.69,4.91,1.25,6.67,4.1,7.29,2.12.45,4.52.56,6.41-.54a29.9,29.9,0,0,1,14.85-4.41,11.27,11.27,0,0,1,10,5.58,12.61,12.61,0,0,1,.59,1.24C603.91,455.35,585.39,462.37,585.39,462.37Z" fill="#6366f1" data-primary="true"/>

<path d="M418.18,485.53s4.8-16.47,18.37-7.42l9.44,6.38s8,8.06,15.12-.14a17.38,17.38,0,0,0,3.22-5.93c2.48-7.51,12.39-32.8,31.41-26.17,0,0,16.12,2.74,12.4,24.1,0,0-5.59,16.43-3.07,22.67a3.24,3.24,0,0,0,5,1.17c3.33-2.67,11.61-8.42,14-1.79,0,0,1.47,2.33-1.55,11.38,0,0-.71,4.15,1.91,5.09,0,0,2,1.55,6.85-1,0,0,10.42-3.87,9.88,14.13,0,0-28.44-.86-134,3.66l29.41-27.9s5-13.75-5.78-18.94C430.77,484.81,427,483.9,418.18,485.53Z" fill="#6366f1" data-primary="true"/>

<g opacity="0.2">

<path d="M418.18,485.53s4.8-16.47,18.37-7.42l9.44,6.38s8,8.06,15.12-.14a17.38,17.38,0,0,0,3.22-5.93c2.48-7.51,12.39-32.8,31.41-26.17,0,0,16.12,2.74,12.4,24.1,0,0-5.59,16.43-3.07,22.67a3.24,3.24,0,0,0,5,1.17c3.33-2.67,11.61-8.42,14-1.79,0,0,1.47,2.33-1.55,11.38,0,0-.71,4.15,1.91,5.09,0,0,2,1.55,6.85-1,0,0,10.42-3.87,9.88,14.13,0,0-28.44-.86-134,3.66l29.41-27.9s5-13.75-5.78-18.94C430.77,484.81,427,483.9,418.18,485.53Z"/>

</g>

<path d="M494.61,518.94l-1.49-.22c.16-1.09.27-2.13.34-3.07a3.39,3.39,0,0,0-1.54-3.11,3.32,3.32,0,0,0-3.4-.17,30.87,30.87,0,0,1-8.1,2.68l-.11,0-.11,0a5.65,5.65,0,0,1-4.43-2.84c-3.72-6.4,2-21.79,4.58-28.11a9.71,9.71,0,0,0,.8-4.65c-.09-1-.34-1.4-.54-1.46-1.83-.48-8.1,7.51-12.25,12.84-.95,1.22-1.88,2.42-2.78,3.55-3,3.73-5.9,5.57-8.86,5.58a7.07,7.07,0,0,1-5.25-2.55l1.19-.92a5.62,5.62,0,0,0,4.09,2h0c2.42,0,5-1.68,7.63-5l2.77-3.53c6.87-8.83,11.26-14.16,13.86-13.37.93.28,1.48,1.21,1.63,2.77a11.44,11.44,0,0,1-.91,5.37c-2,4.77-8.15,20.79-4.68,26.77a4.16,4.16,0,0,0,3.21,2.09,29.78,29.78,0,0,0,7.55-2.51,4.8,4.8,0,0,1,4.92.25,4.87,4.87,0,0,1,2.21,4.48C494.89,516.74,494.77,517.81,494.61,518.94Z" fill="#0f172a" data-secondary="true"/>

<path d="M499,522.26l-1.26-.83s2.82-4.39,1.4-11.5l1.48-.3C502.19,517.39,499.15,522.07,499,522.26Z" fill="#0f172a" data-secondary="true"/>

<path d="M543.93,528.81l-.78,0-1.49,0h-1.27l0-.78c.18-6.74-1.13-11.2-3.79-12.9s-6.18-.1-6.22-.08c-4.1,1.18-6.79,1-8.13-.49-1.68-1.85-.5-4.86-.45-5,2.15-6.44,1.86-10.15,1.24-12.12l-.19-.36.17-.43a56.81,56.81,0,0,0,5.11-14.72h0l.3-1.57a1,1,0,0,1,0-.22c.22-1.34.41-2.75.55-4.13a138.62,138.62,0,0,1,3.13-19.3c6.12-25,21-67.17,52.17-68.29h0c.26,0,4.76.06,6.81,3.23,1.44,2.21,1.28,5.31-.46,9.21-.32.71-.7,1.46-1.14,2.26-.09.18-2.77,5.41-14,15.8a33.88,33.88,0,0,0-6.37,7.89,20.37,20.37,0,0,0-2.32,5.4c-.65,2.93.57,3.69,1,3.94a3.11,3.11,0,0,0,2.43.3,99.17,99.17,0,0,0,11-3.19,24.88,24.88,0,0,1,8.93-1.55c4.48.09,7.75,1.32,9.47,3.57,1.47,1.93,1.82,4.58,1,7.85a7,7,0,0,1-.1,2.09c-.84,4.66-5.8,13.66-29.58,21.6-.08.05-19.18,10.25-14.11,20,.08.21.9,2.49,4.89,3.8a18.29,18.29,0,0,0,2.21.55l.28,0a29.33,29.33,0,0,0,7.72.08l.49,0,.16,0c.23,0,4-.6,6.35.67h0a2.46,2.46,0,0,1,.57.38l.26.24c.75.73,1.36,2,.64,4.13a12.42,12.42,0,0,1-1.49,2.92c-.36,1-3,6.81-19.64,13.79l-.75.27c-1.84.56-11.13,3.84-14.17,12.6a17.49,17.49,0,0,0-.52,1.83Zm-2-1.56h.65q.18-.72.45-1.53c3.28-9.47,13.2-13,15.15-13.56l.26-.08c-.06,0,0,0,.13,0l.1,0c17.11-7.19,18.91-12.92,18.93-13l.1-.23a10.64,10.64,0,0,0,1.37-2.64c.65-1.9-.15-2.52-.42-2.72l-.42-.28c-1.55-.82-4.31-.62-5.26-.48l-.17,0c-.24,0-.42.05-.65.06a31.08,31.08,0,0,1-7.21,0V493l-1-.32a17.66,17.66,0,0,1-2.6-.63c-4.78-1.57-5.77-4.53-5.81-4.65-5.71-11,14.06-21.55,14.91-22,24-8,28-17,28.69-20.47a5.23,5.23,0,0,0,.07-1.71l0-.17,0-.17c.73-2.87.48-5.13-.72-6.71-1.8-2.36-5.51-2.93-8.31-3a23.21,23.21,0,0,0-8.39,1.46,101.06,101.06,0,0,1-11.18,3.24,4.58,4.58,0,0,1-3.57-.49c-1.68-1-2.24-2.92-1.65-5.55a21.81,21.81,0,0,1,2.48-5.82,35.51,35.51,0,0,1,6.66-8.25c11-10.15,13.66-15.35,13.68-15.4.44-.79.8-1.5,1.11-2.17,1.52-3.4,1.71-6,.57-7.77-1.63-2.51-5.49-2.54-5.53-2.54-30.1,1.08-44.7,42.53-50.73,67.13a137.54,137.54,0,0,0-3.09,19.1c-.14,1.41-.34,2.85-.58,4.29l0,.19-.15.79.22.22-.34.41a58.77,58.77,0,0,1-5.14,15c1,3.26.52,7.59-1.28,13-.26.67-.72,2.51.15,3.47.64.7,2.27,1.29,6.47.09,0,0,4.09-2,7.56.2C540.5,515.73,542,520.27,541.93,527.25Z" fill="#0f172a" data-secondary="true"/>

<path d="M541.13,528.74l-11.22-.55.06-1.5c7.11.24,11.21.54,11.25.54Z" fill="#0f172a" data-secondary="true"/>

<path d="M543.91,528.89l-2.78-.15,0-1.51a4.52,4.52,0,0,1,.52,0c.5,0,1,0,1.5,0l.74,0Z" fill="#0f172a" data-secondary="true"/>

<polygon points="564.93 492.98 559.53 491.18 564.89 491.17 564.93 492.98" fill="#0f172a" data-secondary="true"/>

<path d="M532.27,513.75c-1.3-4.31,6.1-15.63,10.62-22a34.27,34.27,0,0,0,3.38-5.73,88.71,88.71,0,0,0,5.79-19.29,84.3,84.3,0,0,0,1.43-12.69,83.36,83.36,0,0,1,10.63-38.19l1.27.81A81.81,81.81,0,0,0,555,454.1,87.25,87.25,0,0,1,553.54,467a89.39,89.39,0,0,1-5.9,19.63,36.58,36.58,0,0,1-3.52,6c-7.21,10.13-11.2,18.05-10.41,20.67Z" fill="#0f172a" data-secondary="true"/>

<path d="M562.23,530.52l-1.14-.08c-8.37-.87-14.41-1.42-18-1.63-.5,0-1,0-1.36,0h-.11v-1.5h.92q.18-.72.45-1.53c3.28-9.47,13.2-13,15.15-13.56l.26-.08c-.06,0,0,0,.13,0l.1,0c17.11-7.19,18.91-12.92,18.93-13l.1-.23a10.64,10.64,0,0,0,1.37-2.64c.65-1.9-.15-2.52-.42-2.72l-.42-.28c-1.86-1-5.23-.48-5.26-.48l-.17,0c-.24,0-.42.05-.65.06a31.08,31.08,0,0,1-7.21,0V493l-1-.32a17.66,17.66,0,0,1-2.6-.63l-1.38-.45,1.37-1c1.65-2.23,31.39-41.85,65.27-41.85.34,0,9.65-.69,12.44,3.52,1.15,1.73,1.05,4-.3,6.62l-.06.16c-.22.93-2.51,6.45-21,9.3-4.44,1.23-11.46,4.26-11,7.11a2.54,2.54,0,0,0,.69,1.31c0,.06,2.06,2.25,13.34,3.66.3.05,6.64,1.16,9.13,5.32a7.44,7.44,0,0,1,.51,6.38,8.71,8.71,0,0,1-3.1,5.85c-4.13,3.65-11.46,4.85-21.81,3.56-.1,0-12-1.18-19.43,1a2.71,2.71,0,0,0-.43.14,13.63,13.63,0,0,0-1.95.76c-.3.15-.57.3-.82.45a6.37,6.37,0,0,0-1,.76l-.15.13a3.86,3.86,0,0,0-1.22,2.86c0,.13,0,.24,0,.37l.06.4a6.11,6.11,0,0,0,.3,1.17h0a9.49,9.49,0,0,0,.69,1l.12.22a22.46,22.46,0,0,0,8.49,6.47,2.08,2.08,0,0,0,.3.13l.43.18c.49.21,1,.41,1.53.58s3.23,1.47,3.64,3.57a2.94,2.94,0,0,1-1,2.68l-.1.11a11.57,11.57,0,0,1-3.54,2.1l-.3.11a2.68,2.68,0,0,1-.3.12l-.16.06A24.29,24.29,0,0,1,578.69,528c-1.23-.17-2.55-.32-3.83-.41l-.11-.77,0,.75-.26,0a36.24,36.24,0,0,0-5.22,0l-.2,0c-3.18.31-5.39,1.19-6.56,2.62Zm-18.12-3.16c3.65.25,9.41.78,17.14,1.58l.32,0c1.48-1.57,3.93-2.52,7.3-2.85a1.06,1.06,0,0,1,.29,0,37.23,37.23,0,0,1,5.5,0l.24,0c1.38.1,2.74.25,4,.43a22.73,22.73,0,0,0,11.17-1.08l.4-.15a3.39,3.39,0,0,1,.41-.15,10.11,10.11,0,0,0,3-1.78l.09-.09c.65-.72.57-1.16.54-1.32-.22-1.12-2.07-2.16-2.7-2.44s-1.06-.38-1.57-.6l-.39-.16a2.92,2.92,0,0,1-.44-.19,23.71,23.71,0,0,1-9.07-7l-.09-.14a10,10,0,0,1-.84-1.28,7.54,7.54,0,0,1-.39-1.45l0-.06-.06-.54c0-.17,0-.33,0-.49a5.27,5.27,0,0,1,1.61-3.87,1.34,1.34,0,0,1,.27-.26,7.55,7.55,0,0,1,1.19-.91c.3-.18.61-.36.95-.53a15,15,0,0,1,2.12-.83l.51-.16c7.67-2.26,19.51-1.1,20-1,12.31,1.53,18-.87,20.6-3.16a7.09,7.09,0,0,0,2.65-4.88l0-.24a6.07,6.07,0,0,0-.34-5.23c-2.13-3.56-8-4.59-8.06-4.6-12-1.51-14.09-3.94-14.29-4.21a3.82,3.82,0,0,1-1-2.05c-.77-5.07,10.88-8.42,12.21-8.79,18.33-2.83,19.86-8.12,19.92-8.34v-.18l.07,0c1.13-2.2,1.28-3.95.45-5.22-1.92-2.88-8.69-3-11.14-2.84-31.67,0-59.81,35.57-63.71,40.71l1.08.23.28,0a29.33,29.33,0,0,0,7.72.08l.49,0,.16,0c.23,0,4-.6,6.35.67h0a2.46,2.46,0,0,1,.57.38l.26.24c.75.73,1.36,2,.64,4.13a12.42,12.42,0,0,1-1.49,2.92c-.36,1-3,6.81-19.64,13.79l-.75.27c-1.84.56-11.13,3.84-14.17,12.6C544.32,526.62,544.21,527,544.11,527.36Z" fill="#0f172a" data-secondary="true"/>

<path d="M549.17,528.76l-.72-1.33c.27-.15,27.87-15.38,35.22-33,.57-1.21,13.83-28.82,31.27-36.49l.61,1.38c-16.92,7.44-30.37,35.44-30.5,35.72C577.5,513.12,550.32,528.13,549.17,528.76Z" fill="#0f172a" data-secondary="true"/>

<path d="M402.82,533.25l33-29.89c.3-1.67,1.89-11.72-3.12-16.24-3-2.68-7.8-3-14.33-.88l-.82.27-.15-.85c0-.11-1.87-10.9,9-13.76A16.9,16.9,0,0,1,441,475.07a71.77,71.77,0,0,1,5.47,4.75s4.24,4,8.55,3.7a7,7,0,0,0,5-2.87c.08-.08,2.3-2.47,4.78-11.73a34.13,34.13,0,0,1,7.31-14c4.48-5.06,11.92-10.52,22-7.9,1,0,8.42.43,13.05,6.33,3.7,4.72,4.53,11.59,2.45,20.41-2.52,8.22-5.78,22.13-3.83,24.66a.59.59,0,0,0,.56.27h.2l.18.09h0s1.77.63,5.07-3.24a8.35,8.35,0,0,1,9.64-2.37l.18.09a5.75,5.75,0,0,1,2.73,3.47l.08.22c1,3.17.59,7.57-1.25,13.09-.26.67-.72,2.51.15,3.47.64.7,2.27,1.29,6.47.09,0,0,4.09-2,7.56.2,3.19,2,4.7,6.81,4.5,14.23l0,.79-.79-.06s-4.11-.31-11.19-.54A582.78,582.78,0,0,0,453.55,531ZM426,483.36a11.1,11.1,0,0,1,7.73,2.64c6.09,5.5,3.65,17.4,3.54,17.9l-.05.24-.18.17-30.13,27.25,46.51-2a584.58,584.58,0,0,1,76.45-2.85c5.37.18,9,.39,10.54.49.06-6.3-1.25-10.49-3.81-12.12-2.75-1.76-6.18-.1-6.22-.08-4.1,1.18-6.79,1-8.13-.49-1.68-1.85-.5-4.86-.45-5,2.15-6.44,1.86-10.15,1.24-12.12l-.07-.17a4.19,4.19,0,0,0-2-2.6l-.13-.07a.7.7,0,0,1-.14-.08,6.85,6.85,0,0,0-7.76,2c-3.61,4.23-6,3.92-6.7,3.69a2.1,2.1,0,0,1-1.66-.86c-3.06-4,2.89-23.73,3.58-26,1.95-8.3,1.22-14.74-2.18-19.08-4.4-5.62-11.91-5.77-12-5.77l-.19,0c-9.37-2.48-16.36,2.66-20.57,7.42a32.68,32.68,0,0,0-7,13.4c-2.63,9.78-5,12.25-5.11,12.35a8.37,8.37,0,0,1-6.06,3.37c-5,.32-9.5-3.94-9.69-4.12-1.87-1.77-3.67-3.34-5.36-4.65a15.39,15.39,0,0,0-13.25-2.9c-8,2.09-8.22,8.78-8,11.18A25.64,25.64,0,0,1,426,483.36Z" fill="#0f172a" data-secondary="true"/>

<path d="M330.2,537.63s-237.54-3.72-249.61,35.5c0,0,2.17,30.41,103.65,12.94,0,0,69.81-14.45,84.89,2.14,0,0,13.57,10.56-40.72,19.61,0,0-41.08,4.82-57.8,18.47A14.32,14.32,0,0,0,174,650.52c9.71,4.28,29.27,8.76,68,7.07,0,0,152.34,9,259.43-1.51,0,0,40.72-3,111.61-3,0,0,186.56-2.61,211.45-40.59a11.82,11.82,0,0,0-2.15-15.27c-11.2-9.9-47.07-27.72-158-21.07,0,0-150.83,15.09-132.73-4.52,0,0,6-7.54,36.2-15.08,0,0,16.59-4.13,22.83-10.67a6.31,6.31,0,0,0-2.26-10.1c-8.08-3.38-37.16-10.91-93.72-8.64Z" fill="#0f172a" data-secondary="true"/>

<path d="M129.41,597.93c-19.53,0-28.21-2.86-28.36-2.91-11.62-1.68-19-5.4-21.63-11s.39-11,.53-11.27l1.29.77s-2.82,4.93-.45,9.86c2.46,5.13,9.4,8.56,20.61,10.19.4.12,26.85,8.78,92.16-4.58,2.71-.49,66-11.84,76.48,4.93l-1.28.8c-9.91-15.91-74.26-4.37-74.91-4.25C165.42,596.28,144.28,597.93,129.41,597.93Z" fill="#0f172a" data-secondary="true"/>

<path d="M106.91,568.94l-1.35-.67c.19-.39,4.91-9.43,23.18-12.48l.24,1.49C111.55,560.19,107,568.85,106.91,568.94Z" fill="#fff"/>

<rect x="114.15" y="568.6" width="10.31" height="1.51" transform="translate(-378.36 268.14) rotate(-46.98)" fill="#fff"/>

<path d="M383.76,260.91A120.51,120.51,0,0,1,281.27,380.2c-1.13.18-2.26.33-3.41.47a120.92,120.92,0,0,1-40-1.75h0a120.71,120.71,0,0,1-94.51-103.35c-.18-1.48-.33-3-.45-4.48q-.44-5-.44-10.17c0-3.47.15-6.89.46-10.3,0-.65.1-1.28.16-1.93a119.64,119.64,0,0,1,3.49-19.05,120.67,120.67,0,0,1,237.22,31.28Z" fill="#fff"/>

<path d="M263.1,382.33a122.31,122.31,0,0,1-25.42-2.67l-.6-.15a121.15,121.15,0,0,1-94.5-103.86c-.19-1.49-.34-3-.46-4.51-.29-3.41-.44-6.85-.44-10.23s.15-7,.46-10.37c0-.59.09-1.18.15-1.79A121.41,121.41,0,1,1,281.38,381c-1.13.18-2.27.33-3.43.47A121.45,121.45,0,0,1,263.1,382.33Zm-24.51-4a121.28,121.28,0,0,0,39.18,1.61c1.14-.13,2.26-.28,3.38-.46,47.7-7.2,87.3-43.55,98.54-90.46A119.93,119.93,0,1,0,143.8,248.76c-.07.72-.12,1.31-.16,1.9-.3,3.38-.45,6.83-.45,10.25s.14,6.74.43,10.1c.12,1.51.27,3,.45,4.46A119.69,119.69,0,0,0,238,378.17Z" fill="#0f172a" data-secondary="true"/>

<path d="M297.79,331.8s-5.55,6.94-26,7.51a14.14,14.14,0,0,0-8.37,2.86,9.43,9.43,0,0,0-3.39,10.75s6,16.59-12.07,18.1c0,0-9.77.72-10.18,7.89a120.71,120.71,0,0,1-94.51-103.35c4-4.05,21.05-19.11,38.48-5a34.46,34.46,0,0,1,10.57,15.27c4.56,12.72,18.8,41.8,46.59,12.8,0,0,17.46-24.54,29.85-10.77,0,0,4.85,3.23,6.35,21.33,0,0-1.5,12.06,15.09,13.57C290.25,322.75,302.31,322.75,297.79,331.8Z" fill="#6366f1" data-primary="true"/>

<g opacity="0.5">

<path d="M146.54,229.63s20.79-63.14,86.77-80.79a21.49,21.49,0,0,1-1.89,5A9.87,9.87,0,0,0,236,165.89s7,5.58-.28,11.09a7.09,7.09,0,0,0-2.66,5.85s-1.09,6,2.91,10.24a10.1,10.1,0,0,0,4.36,2.59c2.73.84,8.57,3.25,6.23,7.94,0,0-6,10.56-34.69-1.51,0,0-10.56-4.53-19.61,9,0,0-18.94,27.93-47.18,18.49" fill="#6366f1" data-primary="true"/>

</g>

<path d="M329.46,168.91s64.22,39.94,51,120.27c0,0-8.74,10.95-16.28-13.18,0,0-1.51-13.58-10.56-6,0,0-12.9,12.91-18.42,5.29a7.67,7.67,0,0,1-1.31-3.66c-.57-4.86-3.3-20.63-15-17.75a33.36,33.36,0,0,1-10,1.09c-5.88-.37-13.6-1.92-15.47-7.44,0,0-5-10.13,18.55-17.21,0,0,40.74-13.51,25.09-26.68C337,203.6,306.84,190,329.46,168.91Z" fill="#6366f1" data-primary="true"/>

<g opacity="0.5">

<path d="M312.87,295.6s-7.21-3.6-4.47-8.67a6.27,6.27,0,0,1,3.74-2.95c2.45-.71,6.72-.85,12,3.52a22.07,22.07,0,0,1,2.71,2.76,20.68,20.68,0,0,0,9.08,6.26,15.11,15.11,0,0,0,9.33-.21c4-1.33,12.3-3.44,13.83,1,0,0,3.55,4.36-2.48,13.41a16.67,16.67,0,0,0-3.29,11.09s.35,13.31-13.53,12.19a15.51,15.51,0,0,0-4,.09,18.58,18.58,0,0,0-12.39,8.3s-5.37,8.59-10.67,8.56a2.75,2.75,0,0,1-2.27-4.06,19.91,19.91,0,0,1,4.06-5s14.91-10.09,7.37-17.63c0,0-10.56-4.52-6-16.59C315.89,307.67,320.41,300.13,312.87,295.6Z" fill="#6366f1" data-primary="true"/>

</g>

<g opacity="0.5">

<path d="M264.79,240.25a26.82,26.82,0,0,1-1.69-9.62,21.47,21.47,0,0,0,.66-5.65,5.13,5.13,0,0,0-5.41-5c-4.54.24-10.71,2.8-14.49,4.57a28.79,28.79,0,0,0-5.23,3.3A18,18,0,0,1,227,231.58c-11.92.83-4.17,9.72-4.17,9.72a7.4,7.4,0,0,1-1.81,9.23s-5.66,5.3-.67,8.6c0,0,5,1.78,9.52-7.27a10.76,10.76,0,0,1,13.58-.64,24.32,24.32,0,0,0,9,2.15c10.41,0,12.75-4,13.08-7.85A11.19,11.19,0,0,0,264.79,240.25Zm-14.51,1.05c-3.75,0-6.79-1.68-6.79-3.77s3-3.77,6.79-3.77,6.78,1.69,6.78,3.77S254,241.3,250.28,241.3Z" fill="#6366f1" data-primary="true"/>

</g>

<path d="M221.49,260a4.4,4.4,0,0,1-1.35-.19l-.16-.09a4.77,4.77,0,0,1-2.38-3.62c-.27-3.11,2.82-6,3-6.15a6.62,6.62,0,0,0,1.67-8.29c-.07-.06-3.62-4.2-2.27-7.47.82-2,3.19-3.12,7-3.39a17.57,17.57,0,0,0,11.18-3.59,29.25,29.25,0,0,1,5.37-3.39c4.24-2,10.24-4.4,14.77-4.63a5.77,5.77,0,0,1,4.3,1.54,5.89,5.89,0,0,1,1.9,4.2,21.86,21.86,0,0,1-.66,5.77,26.14,26.14,0,0,0,1.63,9.23h0a11.81,11.81,0,0,1,.89,5.62c-.49,5.75-5,8.54-13.83,8.54a24.89,24.89,0,0,1-9.37-2.22,10,10,0,0,0-12.64.42C227.14,259,223.43,260,221.49,260Zm-.77-1.59c.6.15,4.63.86,8.52-6.91l.15-.21a11.59,11.59,0,0,1,14.53-.72h0a23.94,23.94,0,0,0,8.62,2c10.5,0,12.07-4.09,12.33-7.16a10.54,10.54,0,0,0-.78-4.92h0a27.5,27.5,0,0,1-1.75-9.93l0-.16A20.3,20.3,0,0,0,263,225a4.41,4.41,0,0,0-1.42-3.14,4.32,4.32,0,0,0-3.2-1.14c-4.51.23-10.84,2.91-14.21,4.49a27.67,27.67,0,0,0-5.09,3.22A18.73,18.73,0,0,1,227,232.33c-2.1.16-4.9.71-5.63,2.46-.83,2,1.24,5,2.1,6a8.19,8.19,0,0,1-1.86,10.27s-2.68,2.55-2.48,4.93A3.27,3.27,0,0,0,220.72,258.44Zm29.56-16.38c-4.23,0-7.54-2-7.54-4.53s3.31-4.52,7.54-4.52,7.54,2,7.54,4.52S254.51,242.06,250.28,242.06Zm0-7.54c-3.56,0-6,1.59-6,3s2.48,3,6,3,6-1.59,6-3S253.83,234.52,250.28,234.52Z" fill="#0f172a" data-secondary="true"/>

<path d="M249.59,239.92a7.42,7.42,0,0,1,.57-6.58c2.34-3.78,8.14-5.9,17.23-6.3a16.4,16.4,0,0,0,11.18-5c5-5.22,9.95-16,4.91-37.89-.18-.51-19.26-58.14,27.55-80.79.44-.2,43.22-19.31,79.37,28.89.15.26,8.17,15.73,24.64,21,10.93,3.49,23.1,1.78,36.16-5.06,0,0,1.77-1.25,4.18-3.28a16.45,16.45,0,0,1-6.62-12.41c-.88-14,7.44-18.26,12.48-19.56a7.35,7.35,0,0,1,7.51,2.49,11.92,11.92,0,0,1,2.66,9.51c-1.06,7.54-8.15,15.08-13.46,19.77,4.44,2.27,9.82,1.92,16-1.06a36.44,36.44,0,0,0,9.51-6.75l17.39-16.79c.21-.24,24.77-27.37,53.58-16.76l-.52,1.42c-27.85-10.26-51.73,16.11-52,16.38L484.54,138a37.79,37.79,0,0,1-9.91,7c-8.34,4-14.19,2.82-17.9.75-2.57,2.18-4.51,3.55-4.75,3.71-13.52,7.09-26.08,8.83-37.41,5.21-17.08-5.45-25.37-21.46-25.45-21.62-35.32-47.08-77-28.51-77.44-28.32-45.6,22.07-26.95,78.45-26.75,79,5.21,22.6,0,33.87-5.27,39.36a17.93,17.93,0,0,1-12.21,5.45c-10.63.47-14.57,3.28-16,5.56a5.85,5.85,0,0,0-.49,5.2ZM463.05,114.21a5.78,5.78,0,0,0-1.43.18c-4.59,1.19-12.17,5.1-11.36,18a15,15,0,0,0,6,11.31l.26.17c5.17-4.52,12.35-12,13.35-19.16a10.44,10.44,0,0,0-2.33-8.35A5.88,5.88,0,0,0,463.05,114.21Z" fill="#0f172a" data-secondary="true"/>

<rect x="550.43" y="89.48" width="1.51" height="17.06" transform="translate(92.13 418.45) rotate(-45)" fill="#0f172a" data-secondary="true"/>

<rect x="540.49" y="105.53" width="4.79" height="1.51" transform="translate(-4.83 183.9) rotate(-19.14)" fill="#0f172a" data-secondary="true"/>

<polygon points="569.28 114.2 563.25 95 591.9 126.67 569.28 114.2" fill="#6366f1" data-primary="true"/>

<g opacity="0.5">

<polygon points="546.65 123.66 566.26 116.12 587.19 126.36 546.65 123.66" fill="#6366f1" data-primary="true"/>

</g>

<path d="M377.22,111.28c-10.12-13.87-22.77-15.52-22.9-15.53l.17-1.5c.55.06,13.42,1.71,23.95,16.14Z" fill="#0f172a" data-secondary="true"/>

<path d="M381.48,116.12a27,27,0,0,0-2.42-11.71l1.32-.72c.1.19,2.58,4.78,2.6,12.42Z" fill="#0f172a" data-secondary="true"/>

<path d="M440.36,164.05a28.43,28.43,0,0,1-6.92-1,1.16,1.16,0,0,1,.25-2.28c8.15-.3,17.45-6.05,17.54-6.11L452,156c-.35.23-8.17,5.06-16,6.14a19.15,19.15,0,0,0,7.91,0l.37,1.47A16.6,16.6,0,0,1,440.36,164.05Z" fill="#0f172a" data-secondary="true"/>

<path d="M182.16,157.4l-1-1.12c.5-.45,49.89-44.62,94.8-21.79.1-3,.61-10.5,3.12-14.27l1.26.84c-2.86,4.28-2.89,14.56-2.89,14.66V137l-1.11-.59C232.07,112.79,182.65,157,182.16,157.4Z" fill="#0f172a" data-secondary="true"/>

<path d="M274.49,125.5c-.07-.14-1.67-3.46,1.56-8.29l1.25.83c-2.71,4.06-1.51,6.69-1.46,6.79Z" fill="#0f172a" data-secondary="true"/>

<rect x="280.59" y="120.64" width="10.67" height="1.51" transform="translate(-2.09 237.73) rotate(-45)" fill="#0f172a" data-secondary="true"/>

<path d="M41.46,236l-.16-1.5c.56-.06,57-6,83.57,0l-.34,1.47C98.18,230.07,42,236,41.46,236Z" fill="#0f172a" data-secondary="true"/>

<path d="M71.3,230.45c-6.93,0-12.88-.7-14.27-2.94a2.81,2.81,0,0,1,.31-3.22l.21-.2c.17-.11,3.5-2.29,10.08-3-4-1.63-9.58-4.77-8.61-9.27a5.38,5.38,0,0,1,3.56-3.8c3.4-1.24,10.59-2.52,21.65,2-5-5-13.29-14.66-13.47-24.2a15.25,15.25,0,0,1,4.78-11.44c.33-.26,6.15-4.31,15.41-2.49,10.6,2.08,21,10.77,31,25.83-.14-4.7.23-13.78,4.79-17.57,2.14-1.79,4.93-2.19,8.28-1.2a15.46,15.46,0,0,1,6.46,4c2.71,2.73,6.53,7.7,9.26,15.89l-1.43.48c-2.64-7.91-6.3-12.69-8.9-15.31a14,14,0,0,0-5.82-3.58c-2.88-.85-5.13-.55-6.89.92-5.53,4.6-4.09,19-4.07,19.16l.34,3.22L122.19,201c-10-15.93-20.92-25.47-31.48-27.57-8.62-1.72-14.15,2.11-14.2,2.14a13.81,13.81,0,0,0-4.24,10.27c.19,10.24,10.41,20.8,14.8,24.86a1.05,1.05,0,0,1,.16,1.36,1.07,1.07,0,0,1-1.32.38C74,207,66.51,208.24,63.09,209.48a3.89,3.89,0,0,0-2.59,2.71c-1,4.42,7.79,7.83,11.24,8.78l5.43,1.48H71.55c-7.88,0-12.26,2.36-13,2.82-.55.89-.3,1.29-.2,1.45,2.28,3.66,25,2.1,38.78.26l.2,1.5A228.42,228.42,0,0,1,71.3,230.45Z" fill="#0f172a" data-secondary="true"/>

<path d="M54.51,232.14c-8.6-7.86-17.45-6.69-17.55-6.68L36.74,224c.39-.06,9.64-1.31,18.78,7.05Z" fill="#0f172a" data-secondary="true"/>

<path d="M54.42,227.41c-2.74-3.53-8.57-4.69-8.63-4.7l.29-1.48c.26.05,6.43,1.27,9.53,5.25Z" fill="#0f172a" data-secondary="true"/>

<path d="M303.56,420.37a6.16,6.16,0,0,1-4.81,4.34l-88.34,16.34a6.86,6.86,0,0,1-7.09-3.16L96.82,264.65c-2.42-4.4-2.71-7.4-1.94-9.44,1.72-4.6,8.82-4.28,8.82-4.28l38.73-2.84.62.59c-.06.65-.12,1.28-.16,1.93-.31,3.41-.46,6.83-.46,10.3s.15,6.82.44,10.17c.12,1.51.27,3,.45,4.48a120.71,120.71,0,0,0,94.51,103.35h0a120.92,120.92,0,0,0,40,1.75c1.15-.14,2.28-.29,3.41-.47l1.43,2.88,20.17,32.21A6,6,0,0,1,303.56,420.37Z" fill="#fff"/>

<path d="M209.19,441.91a7.65,7.65,0,0,1-6.51-3.62L96.18,265.05c-2.3-4.17-3-7.56-2-10.11,1.89-5.05,9.24-4.79,9.56-4.77l39-2.85,1.13,1.07,0,.36c-.07.73-.12,1.32-.16,1.91-.3,3.38-.45,6.83-.45,10.25s.14,6.74.43,10.1c.12,1.51.27,3,.45,4.46A119.69,119.69,0,0,0,238,378.17l.6.14a121.28,121.28,0,0,0,39.18,1.61c1.14-.13,2.26-.28,3.38-.46l.55-.09,1.68,3.38,20.13,32.13a7,7,0,0,1-4.62,10.57l-88.34,16.34A7.81,7.81,0,0,1,209.19,441.91ZM103.51,251.68c-1.22,0-6.58.19-7.92,3.79-.8,2.12-.17,5.09,1.89,8.82L204,437.5a6.12,6.12,0,0,0,6.31,2.8L298.62,424a5.43,5.43,0,0,0,4.22-3.82h0a5.28,5.28,0,0,0-.61-4.46l-20.16-32.21L280.84,381c-.95.15-1.92.27-2.89.39a123,123,0,0,1-40.27-1.76l-.6-.15a121.15,121.15,0,0,1-94.5-103.86c-.19-1.49-.34-3-.46-4.51-.29-3.41-.44-6.85-.44-10.23s.15-7,.46-10.37c0-.52.08-1,.13-1.57l-.11-.1-38.4,2.81Z" fill="#0f172a" data-secondary="true"/>

<g opacity="0.5">

<path d="M292.92,422.1l-74.59,14.15c-13.09,3.39-14.06-1.88-14.06-1.88L103.7,267c-.51-.65-1-1.28-1.33-1.87a7.5,7.5,0,0,1,5.83-11.28l34.67-3.2h0c-.31,3.41-.46,6.83-.46,10.3s.15,6.82.44,10.17c.12,1.51.27,3,.45,4.48a120.71,120.71,0,0,0,94.51,103.35h0a120.92,120.92,0,0,0,40,1.75L295.34,408C303.46,420.76,292.92,422.1,292.92,422.1Z" fill="#6366f1" data-primary="true"/>

</g>

<path d="M210.76,438.15a9.91,9.91,0,0,1-5.36-1.26,4.07,4.07,0,0,1-1.83-2.23L103.05,267.35c-.41-.52-.86-1.15-1.31-1.85a8,8,0,0,1-.34-7.82,8.35,8.35,0,0,1,6.73-4.62l35.57-3.28-.06.9c-.3,3.37-.45,6.81-.45,10.23s.14,6.73.43,10.1c.12,1.51.27,3,.45,4.46A119.69,119.69,0,0,0,238,378.17l.6.14a121.32,121.32,0,0,0,39.18,1.61l.47-.06L296,407.55c3,4.8,3.91,8.67,2.59,11.49-1.49,3.16-5.16,3.76-5.53,3.81L218.47,437A31.63,31.63,0,0,1,210.76,438.15Zm-68.7-186.71-33.8,3.12a6.83,6.83,0,0,0-5.51,3.8,6.38,6.38,0,0,0,.27,6.33,21.18,21.18,0,0,0,1.27,1.8L205,434.09l0,.14a2.55,2.55,0,0,0,1.27,1.44c1.54.93,4.84,1.67,11.85-.15l74.68-14.17s3.21-.45,4.39-3c1.07-2.29.2-5.76-2.5-10l-17.23-26.88a122.91,122.91,0,0,1-39.8-1.82l-.6-.15a121.17,121.17,0,0,1-94.51-103.86c-.18-1.49-.33-3-.45-4.51-.29-3.41-.44-6.85-.44-10.23C141.68,257.75,141.81,254.57,142.06,251.44Z" fill="#0f172a" data-secondary="true"/>

<path d="M145.45,399.67s-28.66-18.09-2.13-37.48l16.84-11.27a31.78,31.78,0,0,1,12-2.9,10.75,10.75,0,0,1,10.68,13.5c-1.1,4.06-3.75,8.7-9.54,12.85,0,0,13-4.86,18.21,7.21,0,0,4.38,8.14-11,19.15,0,0,18-6.22,19.38,4.66,0,0,5.74,9.61-10,19.29l10,16.49s2.89,6.86,12,5.31L298,429.71a8.3,8.3,0,0,0,5.53-3.65c1.39-2.25,2.09-5.76-.66-10.77L281.2,380.07s21.71-2.71,34.23-10.4c0,0,23.08,34.53,24.59,55.65,0,0,1.51,12.06,15.08,25.64A320.2,320.2,0,0,0,426,506.76s-7.54,12.07-36.2,16.59c0,0-37.7,3-51.28,24.14,0,0-28.66-39.22-79.94-60.33,0,0-86-28.66-93.51-61.84A36.14,36.14,0,0,1,145.45,399.67Z" fill="#f9b499"/>

<path d="M338.55,548.82l-.65-.89c-.28-.39-29.13-39.29-79.61-60.08-3.47-1.15-85.81-29-93.88-62a37.34,37.34,0,0,1-19.63-25.71c-1.95-1.3-13.1-9.17-13.46-19.93-.23-6.59,3.66-12.86,11.56-18.63l16.86-11.29a32,32,0,0,1,12.39-3,11.45,11.45,0,0,1,9.4,4.44,11.3,11.3,0,0,1,2,10,22.88,22.88,0,0,1-7.19,11.16c4.41-.64,12-.29,15.82,8.39.16.28,3.9,7.64-8.23,17.72,3.78-.83,9.56-1.53,13.24.76a7.22,7.22,0,0,1,3.38,5.4c.66,1.3,4.66,10.61-9.7,19.78l9.62,15.84c.16.36,2.84,6.39,11.17,5L297.84,429a7.53,7.53,0,0,0,5-3.31c1.68-2.74,1.46-6.11-.68-10l-22.26-36.19,1.16-.14c.22,0,21.7-2.77,33.94-10.3l.61-.38.41.61c.94,1.41,23.21,34.94,24.71,56,0,.08,1.66,12,14.87,25.16.31.35,29.09,31.9,70.73,55.69l.68.39-.42.66c-.31.51-8.05,12.41-36.72,16.94-.43,0-37.55,3.24-50.76,23.79ZM172.4,348.77h-.24a31.36,31.36,0,0,0-11.66,2.81l-16.76,11.22c-7.44,5.44-11.12,11.28-10.92,17.34.36,10.75,12.91,18.81,13,18.89l.27.17.06.31a35.56,35.56,0,0,0,19.16,25.1l.36.15.08.38c7.37,32.39,92.17,61,93,61.29,46.75,19.25,75.09,53.88,79.66,59.75,14.06-20.39,49.73-23.46,51.26-23.59,24.1-3.8,33.11-13.1,35.15-15.61a324.06,324.06,0,0,1-70.34-55.53c-13.57-13.57-15.2-25.55-15.27-26-1.37-19.2-21-50-24.07-54.72-11,6.49-28.13,9.3-32.75,10l21.06,34.23c3,5.53,2,9.34.65,11.56a9,9,0,0,1-6,4L212,447.22c-9.56,1.63-12.76-5.69-12.79-5.76l-10.34-17,.64-.39c14.86-9.14,10-17.9,9.74-18.27l-.1-.29a5.74,5.74,0,0,0-2.69-4.45c-5.13-3.18-15.59.37-15.69.41l-4.92,1.7,4.23-3c14.6-10.43,10.84-18.11,10.8-18.18-4.9-11.31-16.78-7-17.28-6.85l-5.29,2,4.59-3.29c4.84-3.47,8-7.65,9.26-12.44a9.83,9.83,0,0,0-1.77-8.68A10,10,0,0,0,172.4,348.77Z" fill="#0f172a" data-secondary="true"/>

<path d="M146.2,399.73l-1.5-.11c.06-.74,1.73-18,28.37-26l.44,1.45C147.91,382.72,146.22,399.57,146.2,399.73Z" fill="#0f172a" data-secondary="true"/>

<path d="M164.32,425.48c0-.18-3.78-18.23,15.89-25.46l.52,1.42c-18.41,6.76-15.08,23-14.93,23.71Z" fill="#0f172a" data-secondary="true"/>

<path d="M178.77,430.6h-.17l.06-1.5a15.72,15.72,0,0,0,10.66-4.94l1.06,1.06A17.09,17.09,0,0,1,178.77,430.6Z" fill="#0f172a" data-secondary="true"/>

<path d="M367.59,333.94l-.84-1.26c6-4,21.24-15.53,20.29-20.95-.21-1.22-1.38-2.09-3.46-2.61a1.79,1.79,0,0,1-1.14-1.1c-.69-1.77.54-5,3.65-9.73.38-1.27,4.24-14.58,4.35-33.65h1.5c-.11,20.21-4.4,34.06-4.44,34.2l-.09.19c-3.75,5.62-3.77,7.69-3.6,8.32.07.25.18.31.19.31,2.66.66,4.2,1.94,4.52,3.8C389.81,318.83,369.87,332.41,367.59,333.94Z" fill="#0f172a" data-secondary="true"/>

<rect x="366.79" y="334.74" width="12.78" height="1.51" transform="translate(-92.22 147.81) rotate(-19.99)" fill="#0f172a" data-secondary="true"/>

<rect x="361.9" y="343.88" width="11.27" height="1.51" fill="#0f172a" data-secondary="true"/>

<path d="M532.85,578.5a3.86,3.86,0,0,1,0-3.41c3.72-8,33.43-15.93,34.69-16.27,22.65-7.55,26.29-13.13,26.44-15.79s-3.22-4.34-3.25-4.36l.63-1.37c.17.08,4.33,2,4.13,5.81-.29,5.4-9.55,11.17-27.52,17.16-.35.09-30.33,8.07-33.75,15.46a2.37,2.37,0,0,0,0,2.12Z" fill="#0f172a" data-secondary="true"/>

<path d="M348.54,675.42c-97.72,0-160.27-9.43-161-9.54-12.43-2.16-20.35-6.65-23.56-13.33-3.8-7.92.5-15.88.69-16.21l1.32.73c0,.07-4.11,7.63-.64,14.84,3,6.21,10.53,10.41,22.43,12.48.77.12,79.74,12,199,9l104.06-4.52c1,0,99.92-4.53,131.25-4.53,1.82-.12,187.27-12.6,204.24-44.94,1.78-3.39,1.59-6.8-.57-10.42l1.29-.78c2.43,4.06,2.63,8.06.62,11.9-17.37,33.08-197.86,45.24-205.53,45.75-31.34,0-130.24,4.48-131.24,4.52l-104.07,4.53C373.54,675.27,360.76,675.42,348.54,675.42Z" fill="#0f172a" data-secondary="true"/>

<path d="M312.55,566.34H287.83v-1.51h18.63c-1.12-.86-2.15-2-1.91-3.34s1.88-3.42,12.79-4.2l.11,1.51c-10.22.73-11.32,2.45-11.41,3-.17.92,1.89,2.42,3.44,3.14Z" fill="#fff"/>

<polygon points="288.58 573.13 287.07 573.13 287.07 568.6 295.35 568.6 295.35 570.11 288.58 570.11 288.58 573.13" fill="#fff"/>

<rect x="289.22" y="575.16" width="11.57" height="1.51" transform="translate(-344.01 474.1) rotate(-53.82)" fill="#fff"/>

<path d="M385.86,621.85c-16.11,0-29.44-1.1-30.82-1.21l.13-1.51c.87.08,87,7.16,90.26-14.61a8.27,8.27,0,0,0-4.44-8.36c-7-3.82-15.26-9.31-14.48-13.76.44-2.49,3.42-4.11,9.11-5,.66-.07,63.06-6.67,69.58-18.56a3.53,3.53,0,0,0,.06-3.5l-.13-.25.07-.27h0a1.71,1.71,0,0,0-.55-.82c-2.82-2.7-17.15-8.24-89.14-1.27l-.15-1.5c71.41-6.91,87.43-1.71,90.63,2a2.62,2.62,0,0,1,.71,1.63,5,5,0,0,1-.18,4.72c-6.9,12.57-68.11,19.06-70.71,19.33-4.8.72-7.51,2-7.81,3.73-.48,2.7,4.65,7.25,13.71,12.18a9.77,9.77,0,0,1,5.21,9.9C444.77,619,411.73,621.85,385.86,621.85Z" fill="#fff"/>

<path d="M365.46,631.17c-16.52-4.51-23.7-9.28-24-9.48l.85-1.25c.07,0,7.31,4.84,23.55,9.28Z" fill="#fff"/>

<path d="M355.05,634.52a13.82,13.82,0,0,1-9.46-3.55l1.08-1.06a12.61,12.61,0,0,0,11.3,2.81l.3,1.48A16.25,16.25,0,0,1,355.05,634.52Z" fill="#fff"/>

<path d="M638.36,626.51l-.05-1.51c1.09,0,109.52-3.8,129.42-19a4.6,4.6,0,0,0,1.83-3.69,4.47,4.47,0,0,0-1.87-3.57C763.27,595.5,751,590,718.58,589l0-1.5c31.2.94,44.39,6,50,10a6,6,0,0,1,2.49,4.77,6.08,6.08,0,0,1-2.43,4.91C748.37,622.69,642.84,626.36,638.36,626.51Z" fill="#fff"/>

<path d="M765.55,619.11l-.39-1.46c.12,0,11.58-3.19,14.5-10.93l1.41.53C777.88,615.73,766.05,619,765.55,619.11Z" fill="#fff"/>

<path d="M777.38,626.4l-.77-1.3a37.36,37.36,0,0,0,8.47-7.21l1.16,1A38.92,38.92,0,0,1,777.38,626.4Z" fill="#fff"/>

<path d="M408.2,495.69,426,506.76s6.85-4.08,5.69-18.63C431.68,488.13,414.55,483.11,408.2,495.69Z" fill="#0f172a" data-secondary="true"/>

<path d="M503.85,519.56l-.36-1.46.18.73-.2-.73s1.41-.46,2.25-3.46l1.45.41C506.09,518.92,504.07,519.51,503.85,519.56Z" fill="#0f172a" data-secondary="true"/>

<path d="M682.4,442.66A56.56,56.56,0,1,1,739,386.1,56.62,56.62,0,0,1,682.4,442.66Zm0-111.61a55.05,55.05,0,1,0,55.05,55.05A55.11,55.11,0,0,0,682.4,331.05Zm0,102.56a47.51,47.51,0,1,1,47.51-47.51A47.56,47.56,0,0,1,682.4,433.61Zm0-93.51a46,46,0,1,0,46,46A46.05,46.05,0,0,0,682.4,340.1Z" fill="#0f172a" data-secondary="true"/>

<path d="M492.36,368a76.92,76.92,0,1,1,76.92-76.92A77,77,0,0,1,492.36,368Zm0-152.34a75.42,75.42,0,1,0,75.41,75.42A75.5,75.5,0,0,0,492.36,215.66Zm0,140a64.57,64.57,0,1,1,64.57-64.57A64.64,64.64,0,0,1,492.36,355.65Zm0-127.63a63.06,63.06,0,1,0,63.06,63.06A63.13,63.13,0,0,0,492.36,228Z" fill="#0f172a" data-secondary="true"/>

<path d="M682.4,229.24a63.35,63.35,0,1,1,63.35-63.35A63.42,63.42,0,0,1,682.4,229.24Zm0-125.19a61.84,61.84,0,1,0,61.84,61.84A61.91,61.91,0,0,0,682.4,104.05Zm0,115a53.2,53.2,0,1,1,53.2-53.2A53.27,53.27,0,0,1,682.4,219.09Zm0-104.89a51.69,51.69,0,1,0,51.69,51.69A51.75,51.75,0,0,0,682.4,114.2Z" fill="#0f172a" data-secondary="true"/>

<path d="M744,408.14l3.65-2.32c44.27-28,39.12-66,39.06-66.36-1.28-43.4-48.06-48.59-48.54-48.64-17.42.41-30.75-4.43-39.59-14.31-14.8-16.53-11.64-41.84-11.61-42.09l1.5.2c0,.24-3.1,24.88,11.24,40.89,8.54,9.53,21.55,14.17,38.52,13.81.58.05,48.66,5.36,50,50,.05.29,5.12,37.22-36.37,65.56,4.28-.9,10.77-2.19,12.8-2.19v1.51c-2.9,0-16.29,3-16.42,3Z" fill="#0f172a" data-secondary="true"/>

<rect x="742.28" y="395.9" width="12.97" height="1.51" transform="translate(-9.3 775.23) rotate(-54.45)" fill="#0f172a" data-secondary="true"/>

<rect x="746.51" y="407" width="1.51" height="10.98" transform="translate(145.58 1017.91) rotate(-74.08)" fill="#0f172a" data-secondary="true"/>

<path d="M693,249.45c-3.07-9.6-.1-16.46,0-16.75l1.37.61c0,.07-2.85,6.66,0,15.68Z" fill="#0f172a" data-secondary="true"/>

<path d="M699,242.06h-1.5c0-7.77,3.1-11,3.23-11.09l1.07,1.06-.53-.53.53.53S699,235,699,242.06Z" fill="#0f172a" data-secondary="true"/>

<path d="M674.11,386.85s.41,9.48-4.87,14.32a1.45,1.45,0,0,0-.18,1.92c2.2,3.08,9.12,10.75,19.48,3.37,0,0,12.43-8.29,3.52-20.74C692.06,385.72,683.16,394.4,674.11,386.85Z" fill="#f9b499"/>

<path d="M680.05,410.33c-6.12,0-10.19-4.82-11.61-6.8a2.21,2.21,0,0,1,.29-2.91c5-4.55,4.63-13.64,4.62-13.73l-.07-1.71,1.31,1.1c8.41,7,16.61-.76,16.95-1.1l.63-.61.51.71c2.79,3.9,3.84,7.81,3.15,11.63-1.15,6.3-6.63,10-6.87,10.18A15.3,15.3,0,0,1,680.05,410.33Zm-5.2-22c-.12,3-.88,9.5-5.1,13.37a.69.69,0,0,0-.08.92c2.33,3.26,8.77,10.08,18.44,3.2.07-.05,5.21-3.56,6.24-9.22.57-3.18-.24-6.47-2.43-9.79C689.72,388.62,682.43,393.56,674.85,388.36Z" fill="#0f172a" data-secondary="true"/>

<path d="M695.28,358.49c-4.47-7.24-15.27,0-15.27,0-6.17,6.33-11.94,2.72-11.94,2.72s-1.51,19.61,6,25.64c0,0,9,7.55,17.95-1.13,0,0,1.41-1.51,2.79-7a45.93,45.93,0,0,0,.68-18.75Z" fill="#f9b499"/>

<path d="M682.73,390.62a15.75,15.75,0,0,1-9.11-3.19c-7.75-6.2-6.36-25.46-6.3-26.27l.1-1.24,1.05.65c.22.13,5.35,3.19,11-2.6l.12-.1c.26-.18,6.46-4.29,11.65-3.16a7.14,7.14,0,0,1,4.68,3.39l.1.27.25,1.49a46.34,46.34,0,0,1-.69,19.06c-1.39,5.51-2.81,7.15-3,7.32A13.91,13.91,0,0,1,682.73,390.62Zm-14-28.26c-.18,4.14-.34,19,5.81,23.9.36.3,8.65,7,17-1.08h0s1.29-1.53,2.58-6.62a45,45,0,0,0,.66-18.45l-.22-1.34a5.55,5.55,0,0,0-3.64-2.58c-4.32-.94-9.79,2.48-10.43,2.89C675.6,364.05,670.85,363.13,668.77,362.36Z" fill="#0f172a" data-secondary="true"/>

<path d="M659,392.89s-3-6,1.51-10.56c0,0,3-1.75,0-4.65,0,0-6-4.4-1.51-10.43,0,0,3.67-2.45,2.2-6.23a8.63,8.63,0,0,1-.68-3.84c.29-3.34,1.85-8.76,9-8.46a11.28,11.28,0,0,1,4.31,1.22c1.63.78,4.88,1.49,9.67-1.23,0,0,9.12-5.18,12.68,2.91,0,0-1,3.56,6.58,6.58,0,0,9.87,3.13,5.69,14.38a14.12,14.12,0,0,1-5.69,6.73s17,7.3,4.72,18.73c0,0-9.24-5.15-10.75-5.15l-1.59-.1s-.2-2.17-3.08-7.07c0,0,6.3-8.83,3.22-27.23,0,0-3.34-7.24-15.27,0a10.19,10.19,0,0,1-11.94,2.72s-1.51,19.61,6,25.64l-.31,4.45A28.88,28.88,0,0,0,659,392.89Z" fill="#0f172a" data-secondary="true"/>

<path d="M560.22,241.49,548,227.76l1.13-1,9.78,11a236.56,236.56,0,0,1,10.76-52.71c12.14-36,32-57.39,57.41-62-2.08-2.35-7.48-8.09-11.35-8.92l.32-1.47c5.36,1.14,12.75,10.05,13.06,10.43l.84,1-1.31.21C567,134,560.38,238.6,560.33,239.66Z" fill="#0f172a" data-secondary="true"/>

<path d="M630.71,119.45l-1.5-.2c1-7.58-2.79-11.62-2.83-11.66l1.08-1C627.64,106.72,631.84,111.1,630.71,119.45Z" fill="#0f172a" data-secondary="true"/>

<rect x="635.64" y="106.31" width="1.51" height="9.8" fill="#0f172a" data-secondary="true"/>

<path d="M566.22,244.31c-.12-.31-3-7.88,2.4-17.42l1.32.74c-5,8.89-2.34,16.06-2.32,16.13Z" fill="#0f172a" data-secondary="true"/>

<path d="M564,230.34l-1.51-.11a56.5,56.5,0,0,1,3.74-15.61l1.39.58A55.43,55.43,0,0,0,564,230.34Z" fill="#0f172a" data-secondary="true"/>

<path d="M502.16,305.41l7.54,4.52-3.77,43.51s27.29-4.3,42.68-32.2c0,0,1.82-14.33-11.76-18.85,0,0-19.94-4.05-26.56-11.83C510.29,290.56,505.18,302.39,502.16,305.41Z" fill="#6366f1" data-primary="true"/>

<path d="M505.1,354.34l3.81-44-8-4.77.68-.69c2.88-2.88,7.92-14.49,8-14.61l.48-1.11.78.92c6.38,7.5,25.95,11.54,26.14,11.58,14.09,4.69,12.38,19.54,12.36,19.68l-.09.27c-15.39,27.9-42.94,32.55-43.22,32.59Zm-1.77-49.11,7.17,4.3-3.73,43A64.65,64.65,0,0,0,547.88,321c.15-1.54,1-13.82-11.27-17.9-.7-.14-18.76-3.88-26.09-11.19C509.28,294.68,505.87,302.07,503.33,305.23Z" fill="#0f172a" data-secondary="true"/>

<path d="M500.59,354.89s1.57-31.38,9.11-45c0,0,1.44-11.13-4.56-13.86l5.15-5.51a25.21,25.21,0,0,0,6.66,7.13,8.93,8.93,0,0,1,3.38,10.49,17.3,17.3,0,0,1-.85,1.93s6.81-6.21,8.32-3.2c0,0-14.88,27.81-16.49,44.83C511.31,351.74,505,354.61,500.59,354.89Z" fill="#0f172a" data-secondary="true"/>

<path d="M476.52,311.44h0l8,43C456.24,350.62,442,330.29,442,330.29c.19-21.87,10.38-26.39,10.38-26.39,7.54-1.51,28.53-13.34,28.53-13.34s2.51,8.14.85,14.53A10.06,10.06,0,0,1,476.52,311.44Z" fill="#6366f1" data-primary="true"/>

<path d="M485.41,355.29l-1-.14c-28.24-3.78-42.84-24.22-43-24.42l-.14-.2v-.24c.19-22.11,10.39-26.89,10.82-27.08l.16,0c7.34-1.47,28.1-13.14,28.31-13.25l.82-.46.27.89c.11.34,2.56,8.42.86,14.94a10.74,10.74,0,0,1-5.14,6.56Zm-42.64-25.24a65.12,65.12,0,0,0,40.78,23.46L475.68,311l.5-.25A9.31,9.31,0,0,0,481,304.9c1.27-4.89,0-10.95-.59-13.21-4,2.24-21,11.5-27.82,12.93C451.81,305.05,443,310.1,442.77,330.05Z" fill="#0f172a" data-secondary="true"/>

<path d="M495.52,321.52l-.34-.08c-5.5-1.34-12.79-17.36-13.61-19.18l1.38-.61c2.07,4.63,8.18,16.64,12.24,18.21a10.57,10.57,0,0,0,3.63-8.48c0-.18-.44-4.93,3-6.65l.68,1.35c-2.51,1.26-2.18,5.14-2.17,5.18a12.07,12.07,0,0,1-4.52,10.05Z" fill="#0f172a" data-secondary="true"/>

<path d="M487.87,343.35c-4.64-13.92,6.9-23.15,7-23.24l.93,1.19c-.44.35-10.82,8.68-6.52,21.58Z" fill="#0f172a" data-secondary="true"/>

<path d="M511.21,260.25v12c0,5.51-.15,9.57-.33,12.45a16.23,16.23,0,0,1-5.58,11.27l-.15.13c-18.13,10.27-24.23-5.5-24.23-5.5-3.8-5.45-5.15-15.18-5.64-21.83-.3-4.13-.27-7.07-.27-7.07,9.05,1.5,15.08-1.51,15.08-1.51a11.28,11.28,0,0,1,10.5-2.81c1,2.36,6.2,1.87,8.92,1.45A1.46,1.46,0,0,1,511.21,260.25Z" fill="#f9b499"/>

<path d="M493.86,300.3a14.12,14.12,0,0,1-4.78-.81,15.93,15.93,0,0,1-8.82-8.57c-3.81-5.51-5.22-15.06-5.73-22.12-.3-4.12-.27-7.11-.27-7.14v-.88l.87.14a26.36,26.36,0,0,0,14.52-1.39,11.92,11.92,0,0,1,11.14-2.9l.34.1.14.32c.59,1.33,3.62,1.7,8.11,1a2.23,2.23,0,0,1,2.58,2.2v12c0,4.77-.12,9-.34,12.49a17.09,17.09,0,0,1-5.83,11.8l-.17.14Q499.19,300.31,493.86,300.3Zm-18.09-37.76c0,1.17.06,3.4.27,6.15.5,6.9,1.86,16.22,5.5,21.44l.09.16c0,.06,2.3,5.76,8,7.78,4.27,1.53,9.38.63,15.18-2.65l0-.06a15.53,15.53,0,0,0,5.32-10.74c.22-3.49.33-7.66.33-12.4v-12a.71.71,0,0,0-.83-.71c-3.63.57-8.13.73-9.54-1.53a10.35,10.35,0,0,0-9.46,2.68l-.2.14C490.19,261,484.46,263.75,475.77,262.54Z" fill="#0f172a" data-secondary="true"/>

<path d="M641.39,198.57S651.48,177.2,662,183.24c0,0,22.62,18.09,43.74-3,0,0,14.46-4.72,21.56,12.72,0,0-14.29,26.64-47.34,25.06C680,218,657,218.44,641.39,198.57Z" fill="#6366f1" data-primary="true"/>

<path d="M682.77,218.82c-.92,0-1.85,0-2.8-.07h-.08c-1.46,0-23.94-.36-39.09-19.71l-.29-.37.2-.42c.27-.56,6.62-13.85,14.76-16.41a8.33,8.33,0,0,1,6.94.74c1,.79,22.45,17.49,42.84-2.89l.13-.13.17-.06c.15,0,15.21-4.73,22.49,13.16l.13.32-.17.32C727.86,193.56,713.93,218.82,682.77,218.82ZM680,217.24c30.28,1.43,44.79-21.43,46.51-24.35-6.46-15.4-18.68-12.48-20.32-12C684.87,202,661.8,184,661.57,183.82a6.87,6.87,0,0,0-5.64-.55c-6.76,2.13-12.51,12.94-13.65,15.21C657.43,217.45,679.78,217.26,680,217.24Z" fill="#0f172a" data-secondary="true"/>

<path d="M674.11,171.17s-3,12.07-12.07,12.07c0,0,22.62,18.09,43.74-3,0,0-12.07,0-15.08-10.56Z" fill="#f9b499"/>

<path d="M683.1,191.16c-12.15,0-21.39-7.22-21.53-7.34l-1.68-1.34H662c8.35,0,11.31-11.38,11.33-11.49l.14-.52,17.74-1.62.17.6c2.83,9.9,14.25,10,14.36,10h1.82l-1.29,1.29C698.41,188.66,690.25,191.15,683.1,191.16Zm-19-7.37c5.32,3.53,22.86,12.91,39.95-3-3.49-.45-11.27-2.36-13.9-10.36l-15.47,1.4C674,174.08,671.13,182.39,664.11,183.79Z" fill="#0f172a" data-secondary="true"/>

<ellipse cx="681.65" cy="154.58" rx="13.57" ry="21.12" fill="#f9b499"/>

<path d="M681.65,176.45c-7.9,0-14.33-9.81-14.33-21.87s6.43-21.87,14.33-21.87S696,142.52,696,154.58,689.55,176.45,681.65,176.45Zm0-42.23c-7.07,0-12.82,9.13-12.82,20.36s5.75,20.36,12.82,20.36,12.82-9.13,12.82-20.36S688.72,134.22,681.65,134.22Z" fill="#0f172a" data-secondary="true"/>

<path d="M671.3,168.24s-16.14,9.62-21.75-2.77c0,0-4.1-12.4,6.46-15.42,0,0,0-39.21,31.67-21.11,0,0,10-5.7,17.45,1.83a6.4,6.4,0,0,1,1.62,2.72c.51,1.77.74,4.74-1,9,0,0,13.57,0,6,15.1,0,0-4.23,9-18.71,8.3,0,0,4-8.23.81-20.33,0,0-3.21,0-7.74-6.07,0,0-6-4.52-10.56,4.53,0,0-.62,4.57-7.1,5.3C668.51,149.32,666.56,159.1,671.3,168.24Z" fill="#0f172a" data-secondary="true"/>

<path d="M787.6,126.58h-.3L766,124.92l.12-1.51,21.31,1.65a2,2,0,0,0,2-1.08.85.85,0,0,0,0-.82c-.9-1.55-5.58-2.7-8.32-3.06l-3.52-.47,3.41-1c7.88-2.32,8.53-4,8.58-4.27a.34.34,0,0,0-.11-.29l-.3-.2,0-.37a1.81,1.81,0,0,0-.85-1.53c-3-2-12.21.75-15.52,2l-3.54,1.28,2.77-2.55c5.57-5.13,8.43-10.15,8.47-14.89a10.84,10.84,0,0,0-2.8-7.49,9.82,9.82,0,0,0-8.21-2c-10.16,2-19.48,18.28-19.57,18.44l-1.83,3.23.43-3.68c1.1-9.61-.89-11.35-.9-11.37a7.26,7.26,0,0,0-6.29-.69c-5.94,2.17-9.55,11.83-9.58,11.92l-1.42-.52c.16-.42,3.88-10.4,10.48-12.82a8.81,8.81,0,0,1,7.62.84c.44.28,2.3,1.89,1.86,9.63,3.22-4.9,10.63-14.8,18.9-16.45a11.27,11.27,0,0,1,9.49,2.36A12.13,12.13,0,0,1,782,97.74c0,4.46-2.27,9.08-6.67,13.76,4-1.2,10.83-2.76,13.81-.8a3.31,3.31,0,0,1,1.5,2.39,1.87,1.87,0,0,1,.44,1.51c-.26,1.54-2.48,3-6.78,4.55,2.39.56,5.48,1.59,6.44,3.25a2.37,2.37,0,0,1,.14,2.15A3.48,3.48,0,0,1,787.6,126.58Z" fill="#0f172a" data-secondary="true"/>

<path d="M748.08,132.7l-.14-1.5c.34,0,34.1-3,53.28,0L801,132.7C782,129.73,748.42,132.67,748.08,132.7Z" fill="#0f172a" data-secondary="true"/>

<path d="M793.77,128.68l-.15-2a5.52,5.52,0,0,1,1.28-4.27,6.94,6.94,0,0,1,4.49-2l.05,1.51a5.39,5.39,0,0,0-3.43,1.49,3.3,3.3,0,0,0-.75,1.42c2-1.34,6-3,13.27-1.68l-.28,1.48c-9.84-1.84-13.25,2.39-13.28,2.43Z" fill="#0f172a" data-secondary="true"/>

<path d="M320.42,566c-.25-.45-6-11.12,13.15-24.65l.87,1.23c-18.07,12.75-12.76,22.57-12.71,22.67Z" fill="#fff"/>

<path d="M511.17,417.81a31.21,31.21,0,0,1-7.59-.79c-10.7.21-19.12-3.11-24.94-9.77-10.1-11.57-9.69-29.87-9.06-37.08L461.46,382l-1.25-.85,11.72-17.06-.51,3.27c0,.25-3.72,25.07,8.36,38.9,5.53,6.33,13.56,9.47,23.88,9.25h.11l.12,0c.26.08,27.64,7.7,59.82-26.94.22-.26,25.24-29.52,58.95-16.72l-.53,1.41c-32.73-12.43-57,16-57.29,16.31C542.21,414,521.8,417.81,511.17,417.81Z" fill="#0f172a" data-secondary="true"/>

<polygon points="461.38 371.29 460.3 370.23 467.56 362.78 468.64 363.83 461.38 371.29" fill="#0f172a" data-secondary="true"/>

<rect x="475.25" y="367.16" width="1.51" height="11.83" transform="translate(-55.63 84.74) rotate(-9.61)" fill="#0f172a" data-secondary="true"/>

<path d="M608.82,379.54l-.81-1.27a22.18,22.18,0,0,1,14.51-2.56l-.25,1.49A20.89,20.89,0,0,0,608.82,379.54Z" fill="#0f172a" data-secondary="true"/>

<rect x="618.14" y="361.26" width="1.51" height="8.03" transform="translate(-3.37 724.78) rotate(-60.57)" fill="#0f172a" data-secondary="true"/>

<path d="M406.22,494.32,405,493.5c.08-.12,7.81-11.81,25.92-9.44l-.19,1.49C413.49,483.3,406.29,494.2,406.22,494.32Z" fill="#0f172a" data-secondary="true"/>

<path d="M349.07,600.28s37.31,13.5,48.5-11.27a24.75,24.75,0,0,0,.16-19.1c-3.71-9.6-7.52-28.54,13.18-40.52,0,0,56.32-19.78,19.86-44.58,0,0,8.79,20.84-19.87,32.71,0,0-6,2.82-21.11,5.83,0,0-37.7,1.51-51.28,24.14,0,0-.18,1.51-4.61,10.55,0,0-6.12,12.07-12.82,7.55C321.08,565.59,314.38,586.7,349.07,600.28Z" fill="#6366f1" data-primary="true"/>

<path d="M370.13,606.51c-10.88,0-30.57-2.82-45.08-20.86-.26-.28-7.11-7.91-4.71-20.21l.25-1.3,1,.88a4.23,4.23,0,0,0,3.8.68c3-.78,7.53-4.62,12.42-18.46.4-.89,9.74-20.12,51.91-24.64.27,0,28.11-3.63,38-18.59,3.61-5.47,4.4-11.86,2.35-19l-.33-1.15,1.18.19c.35.06,8.87,1.5,13.29,7.93,2.42,3.52,3.13,7.84,2.09,12.83a26.75,26.75,0,0,1-9.29,15c-5.85,4.84-13.89,9.42-23.91,13.61-.74.29-17.75,7.17-13.53,22.86.81,1.62,13.31,27.65-7.18,43.16a36,36,0,0,1-21.59,7.07Zm-48.5-39.7a22.8,22.8,0,0,0,4.57,17.86c14.43,17.94,34,20.43,44.57,20.33a34.57,34.57,0,0,0,20.69-6.77c20-15.16,6.85-41.09,6.72-41.34l-.06-.15c-4.65-17,14.21-24.66,14.4-24.73,12.28-5.14,19.57-10.11,23.51-13.38a25.18,25.18,0,0,0,8.77-14.12c.95-4.57.33-8.49-1.85-11.66-3.12-4.55-8.71-6.42-11.13-7,1.76,7.1.8,13.5-2.86,19-10.27,15.53-37.9,19.11-39.07,19.25-41.34,4.43-50.6,23.51-50.69,23.7-4.09,11.6-8.64,18.14-13.48,19.37A5.89,5.89,0,0,1,321.63,566.81Z" fill="#0f172a" data-secondary="true"/>

<path d="M238.54,379.83l-.86-.19a121.15,121.15,0,0,1-95.1-104c-.19-1.49-.34-3-.46-4.51l0-.38.28-.24c2.52-2.25,15.78-13.42,29-12,6.07.64,11.27,3.84,15.43,9.52.19.24,4.67,6.31,12.16,24.29,0,.05,5.08,9.93,14.18,12.46,5,1.4,10.39.33,15.94-3.19a31.31,31.31,0,0,0,8.44-8.07c5.27-7.17,10.58-11.72,16.25-13.89a16.81,16.81,0,0,1,13.4.54A18.27,18.27,0,0,1,276.59,291a46.92,46.92,0,0,1,2,15.17c-.05.47-.9,10,13.28,12.87.13,0,6.17,0,8.25,3.78,1.3,2.34.72,5.51-1.72,9.42l-.08.1c-.28.32-7.1,7.72-26.52,7.77,0,0-7,.78-10,5.12a8.87,8.87,0,0,0-1,7.54c.09.24,2.7,7.58-.89,13.18-2.18,3.41-6.17,5.39-11.84,5.86-.1,0-9.16.74-9.49,7.18ZM143.65,271.39q.18,2.06.42,4.08A119.67,119.67,0,0,0,237.17,378c1.11-7,10.69-7.72,10.79-7.73,5.17-.43,8.77-2.16,10.69-5.16,3.18-5,.75-11.86.72-11.92-.87-3.5-.45-6.45,1.23-8.86,3.44-4.9,10.84-5.72,11.15-5.76,18,0,24.87-6.64,25.44-7.22,2.09-3.38,2.65-6,1.64-7.83-1.65-3-7-3-7.07-3C276,317.36,277.1,306.14,277.11,306a45.38,45.38,0,0,0-1.95-14.6,16.78,16.78,0,0,0-8.66-9.92,15.36,15.36,0,0,0-12.21-.5c-5.39,2.08-10.48,6.45-15.58,13.38a32.83,32.83,0,0,1-8.85,8.46c-5.93,3.75-11.69,4.88-17.15,3.36-9.76-2.71-14.93-12.86-15.14-13.29-7.42-17.8-11.95-23.95-12-24-3.91-5.33-8.74-8.33-14.38-8.92C159.05,258.71,146.67,268.75,143.65,271.39Z" fill="#0f172a" data-secondary="true"/>

<path d="M379.14,290a11.72,11.72,0,0,1-8.25-2.94c-4-3.67-4.57-9.85-4.58-13.2a11.58,11.58,0,0,0-1.88-6.46,6.62,6.62,0,0,0-4.5-3.22c-2.76-.41-5.33,1.45-5.78,1.8-7.22,10.06-12.68,10-13.51,9.89a5.72,5.72,0,0,1-4.74-1.76c-3.54-3.72-2.71-12.14-2.6-13.18a10.73,10.73,0,0,0-3.82-7.46c-3.74-2.94-8.92-2.36-9-2.35-21.37,1.54-25.64-5.5-25.81-5.8a7.76,7.76,0,0,1-1.9-6.9c1.66-7.81,14.68-14.1,15.23-14.37,23.35-8.76,26.82-13.28,26.86-13.32l.18-.19c3.36-2.35,5-4.83,4.83-7.4-.32-5.24-7.7-9.73-10.86-11.42a15.35,15.35,0,0,1-5.87-5.42c-6.74-11.2,3.53-27,4-27.67l.41-.62.62.4a121.53,121.53,0,0,1,53,131l-.13.54-.55,0C380,290,379.58,290,379.14,290Zm-20-27.39a7.12,7.12,0,0,1,1,.08,8.06,8.06,0,0,1,5.54,3.87,13.21,13.21,0,0,1,2.13,7.29c0,3.11.56,8.82,4.1,12.1a10.51,10.51,0,0,0,7.9,2.53A120,120,0,0,0,328,160.07c-1.82,3-9.08,16.24-3.55,25.43a13.74,13.74,0,0,0,5.29,4.87C333.12,192.18,341,197,341.39,203c.18,3.1-1.62,6-5.37,8.66-.7.84-5.28,5.43-27.41,13.73-.07,0-12.84,6.21-14.35,13.29a6.41,6.41,0,0,0,1.66,5.73c.12.17,4.23,6.62,24.44,5.16.19,0,5.8-.67,10,2.66a12.2,12.2,0,0,1,4.41,8.56V261c0,.09-1,8.69,2.19,12.05a4.19,4.19,0,0,0,3.6,1.29h.09l.09,0s5.11.58,12.2-9.35l.13-.14A10.45,10.45,0,0,1,359.13,262.59Z" fill="#0f172a" data-secondary="true"/>

<path d="M149.44,230.49c-1.84,0-2.93-.1-3-.11l-.88-.09.23-.85a121.4,121.4,0,0,1,87.27-86.2l.75-.19.17.76a14.62,14.62,0,0,1-1.9,10.36c-2.67,6.8,4,10.9,4.24,11.07,2.2,1.76,3.31,3.65,3.36,5.67.08,2.81-1.88,5.16-3.53,6.63a7,7,0,0,0-2.25,3.55c-1.1,4.67,3.62,6.64,3.82,6.72,4.1,1.17,7.19,3,9.11,5.32h0a5.84,5.84,0,0,1,1.28,4.62,6,6,0,0,1-2.65,4.08c-9.12,6-31.46-1.72-32.4-2.05-14.32-5.72-24.63,13-24.73,13.22C176.15,228.87,156.8,230.49,149.44,230.49Zm-1.93-1.55c4.68.21,26.49.26,39.58-16.75,0-.1,11-20,26.51-13.82.2.07,22.55,7.79,31.05,2.2a4.4,4.4,0,0,0,2-3,4.32,4.32,0,0,0-.95-3.44h0c-1.72-2.1-4.56-3.73-8.43-4.84-2.2-.88-5.92-3.74-4.8-8.5a8.45,8.45,0,0,1,2.72-4.32c1.16-1,3.09-3.12,3-5.48,0-1.55-.95-3.05-2.71-4.46h0s-8-4.9-4.76-12.94l.08-.13a13.65,13.65,0,0,0,1.87-8.5A119.89,119.89,0,0,0,147.51,228.94Z" fill="#0f172a" data-secondary="true"/>

<path d="M314.11,353.77a4.07,4.07,0,0,1-.5,0c-1.87-.18-3.36-1.36-4.43-3.5-.3-.6-1.32-3.93,7.73-11.48.1-.07,6.06-4.46,6.43-9.2a5.89,5.89,0,0,0-1.95-4.77,8.49,8.49,0,0,0-1.08-.76c-2.74-1.77-9.15-5.91-5.13-16.63.08-.15,2.13-3.66.91-7.08a6.62,6.62,0,0,0-5.25-4.16c-2.26-.37-6.23-1.56-7.52-5.33a7.18,7.18,0,0,1,1.6-7c2.68-3,10.2-9.13,22-.89l.17.17c.11.14,10.69,14.13,23.37,7.89.13-.08,4.27-2.41,8.51-1.13a9.82,9.82,0,0,1,5.9,5.42l.06.19c.07.32,1.49,8-6.16,18.68h0s-1.51,2.44-1.45,7.51a10.55,10.55,0,0,1-1.2,8.63c-2.58,3.94-8,6.22-16,6.8a18.91,18.91,0,0,0-14.5,8.71C325.28,346.17,319.31,353.76,314.11,353.77Zm1.44-73.49a12.67,12.67,0,0,0-9.5,4.53h0a5.65,5.65,0,0,0-1.3,5.53c1,3,4.41,4,6.33,4.33a8.13,8.13,0,0,1,6.43,5.15c1.46,4.1-.88,8.07-1,8.24-3.53,9.46,1.76,12.87,4.6,14.7a8.71,8.71,0,0,1,1.32,1,7.36,7.36,0,0,1,2.39,5.95c-.43,5.44-6.73,10.08-7,10.27-8.17,6.82-7.3,9.63-7.29,9.65.81,1.63,1.87,2.51,3.2,2.64,3.72.38,8.91-5.16,10.59-7.33,6.16-9.23,15.29-9.34,15.68-9.34,7.48-.53,12.47-2.59,14.79-6.1a9.22,9.22,0,0,0,1-7.44l-.05-.24c-.08-5.67,1.64-8.39,1.72-8.5,6.81-9.54,6.06-16.58,5.94-17.45a8.33,8.33,0,0,0-4.92-4.54c-3.62-1.1-7.35,1-7.39,1-13.23,6.54-24.17-6.89-25.2-8.22C321.89,281.29,318.44,280.28,315.55,280.28Z" fill="#0f172a" data-secondary="true"/>

<path d="M593.72,127.55l-50.53-3.37,22.24-8.55-3.28-23Zm-43.6-4.42,40,2.67L564.34,97.33l2.76,19.27Z" fill="#0f172a" data-secondary="true"/>

<path d="M469,308.42s-1.63-8.8,12-15.71l.06,2.14s-4.52,13.57-1.5,18.1l3-3,3.88,44.69-5.4-.77S466.57,316,463.25,311.44C463.25,311.44,463,308.42,469,308.42Z" fill="#0f172a" data-secondary="true"/>

</svg>